<svg xmlns="http://www.w3.org/2000/svg" viewBox="0 0 243.9 68"><path fill="#CC0C00" d="M41.2 36.9c-3.5-5.8-11.5-8.5-17.9-8.4 0 0-21.7.1-23.3 20.1 0 0-.5 9.5 7.5 14.8 3.2 2.1 7.8 3.6 14.4 3.3 0 0 21.2-.8 22-20.7.2-4-1.4-6.9-2.7-9.1zM28.8 53.2c-3 7.8-9.3 6.9-9.3 6.9-4.5 0-6.7-3-6.8-7-.1-5 2.4-11.3 2.4-11.3 2.8-7.5 9.5-6.7 9.5-6.7.9.1 2.5-.2 4.6 1.6 2 1.7 2.1 4.1 2.1 4.1s.4 4.6-2.5 12.4zm62.4-23.4H76.1s-.2-.1-.2.4l-.1.6s0 .2.1.2c0 0-.1-.1.5.2.6.2.1 1.1.1 1.1l-2.2 1.9-14.2 12 2.6-11.3c.6-3.4 2.2-3.6 2.8-3.8 0 0 .5 0 .5-.3.1-.3.2-.8.2-.8s0-.3-.6-.3H48.7s-.3-.1-.4.5-.1.7-.1.7 0 .3.4.3h.2c1.8.2 1.2 3.2 1.2 3.2l-5.6 24.2s-.9 3.6-1.2 4c-.3.5-1.3 1.6-2.3 1.6 0 0-.3 0-.4.4l-.1.8s0 .1.3.1H58c.4 0 .4-.2.4-.2s.1-.3.2-.8c.1-.4-.1-.4-.1-.4-2.4-.3-1.8-2.8-1.8-2.8l3.4-14.8c1.2 1.7 7.6 10.7 10 14.1 2.7 3.8 4.6 4.1 6.2 4.6 1.5.6 5 .6 6.4.6s4.6-.6 5.2-.8c.5-.2.5-.6.6-.9s-.1-.3-.4-.4-.7-.4-.7-.4c-1.4-.4-8-9.9-8-9.9s-6.4-8.7-6.6-8.9c-.2-.2.1-.5.1-.5s3-2.4 6.2-5c3.6-2.9 7.6-6.3 8.5-6.9 1.6-1.2 3.4-1.3 3.4-1.3.3-.1.3-.3.3-.3l.1-.3c0-.4-.2-.4-.2-.4z"/><path fill="#20419A" d="M155 46s-.1.2-.6.2c.3 0 .6.2.6.2 3.5 2.2 4.7 5.9 4.4 8.7-.6 7.7-6.7 12.2-14.2 12.2s-12.9-4.5-12.4-12.2c.2-2.9 2-6.5 5.8-8.7 0 0 .3-.2.6-.2-.5 0-.6-.2-.6-.2-2.5-1.9-3.2-4.8-3-7.4.5-6 6-10.4 12.5-10.4s11.4 4.5 10.9 10.4c-.1 2.7-1.2 5.5-4 7.4m-7.9-3.1c2.5 0 4.2-1.6 4.3-3.7.2-2.1-1.3-3.7-3.7-3.7s-4.2 1.6-4.3 3.7c-.2 2.1 1.2 3.7 3.7 3.7m-1.4 16.8c2.7 0 5-1.9 5.3-4.9.2-2.8-1.7-4.8-4.5-4.8s-5 2-5.3 4.8c-.2 3 1.8 4.9 4.5 4.9m-18.2-.1l-.9-1c2.2-3.1 3.7-6.8 4-10.9.8-10.8-7-19.6-17.5-19.6-10.4 0-19.6 8.8-20.4 19.6-.8 10.8 7 19.6 17.5 19.6 3.9 0 7.7-1.2 10.8-3.4l.4.5 2.5 2.5c3.3 3.2 9.2-1.3 9.2-1.3l-5.6-6zm-26.8-11.9c.5-6.2 5.7-11.3 11.8-11.3 6 0 10.5 5.1 10.1 11.3-.1 1.8-.7 3.4-1.5 4.9l-3.6-3.9-5.6 5.2 3.7 3.9c-1.5.7-3.1 1.1-4.7 1.1-6.1.1-10.6-4.9-10.2-11.2z"/><path fill="#FFC61E" d="M242.8 19.9c-2.7-11.7-9.6-18.8-9.9-19.1l-.7-.7-.9.2c-4.4 1.2-8.8 3.1-13.1 5.6-2.1-3.2-3.8-5-4-5.2l-.7-.7-.9.2c-7.3 2-14.5 5.8-21.5 11.4-5.6 4.5-11 10-16.1 16.6-8.7 11.1-13.5 21.1-13.7 21.5l-.4.9.7.8C173 65.1 186.6 68 196 68c4.2 0 7.5-.6 9.3-1 3.4.7 6.6 1 9.4 1 6.4 0 10.7-1.3 10.9-1.4l.4-.1.3-.3c8-8.3 13.3-16.9 15.9-25.5 2-6.9 2.2-13.9.6-20.8z"/><path fill="#FFF" d="M204.5 18.7h-18.7c-2 1.9-3.8 4-5.6 6h18.7c1.7-2 3.6-4 5.6-6zm-10.5 12h-18.7c-1.6 2.1-3 4.1-4.3 6h18.8c1.2-2 2.7-4 4.2-6zm-8.1 11.9h-18.7c-1.5 2.5-2.7 4.6-3.4 6h18.7c.8-1.4 1.9-3.5 3.4-6zm-.6 12h-18.7c2.5 2.4 5.1 4.4 7.7 6H193c-2.6-1.6-5.2-3.6-7.7-6z"/><path fill="#FFC61E" d="M206 65.7c.5-.6 1.9-2 4.6-5.1h-36.3c7.9 4.8 15.7 6 21.7 6 4.3-.1 8.4-.6 10-.9z"/><path fill="#FFF" d="M217.8 8.1h-18.7c-2.3 1.4-4.5 3-6.6 4.7h18.7c2.1-1.7 4.3-3.3 6.6-4.7z"/><path fill="#FFC61E" d="M213.1 1.9c-5 1.3-9.7 3.5-14 6.2h18.6c-2.4-4-4.6-6.2-4.6-6.2z"/><path d="M238.8 12.8h-18.7c.8 1.8 1.5 3.8 2.1 6h18.7c-.6-2.2-1.3-4.2-2.1-6zm-15.3 17.9h18.7c.1-2.1 0-4.1-.2-6h-18.7c.2 1.9.3 3.9.2 6zm-2.4 11.9h18.7c.7-2 1.3-4 1.6-6h-18.6c-.4 2-.9 4-1.7 6zm-6 12h18.7c1.4-2 2.5-4 3.5-6h-18.7c-1 1.9-2.2 3.9-3.5 6zm-4.5 5.9c-1.3 1.6-2.7 3.1-4.2 4.7l-.4.4c11 2.5 19.1-.4 19.1-.4 1.5-1.6 2.9-3.2 4.2-4.7h-18.7zm21.2-58.6c-5 1.3-9.7 3.5-14 6.2h18.6c-2.4-4-4.6-6.2-4.6-6.2z" fill="#20419A"/><path fill="#FFC61E" d="M222.2 18.7c-.6-2.2-1.3-4.2-2.1-6h-27.6c-2.4 1.9-4.6 3.9-6.7 6h36.4z"/><path fill="#CC0C00" d="M242 24.7c-.2-2.1-.6-4.1-1.1-6h-36.4c-2 1.9-3.9 4-5.6 6H242z"/><path fill="#FFC61E" d="M223.3 24.7h-43.1c-1.7 2-3.4 4-4.8 6h48.2c0-2.1-.1-4.1-.3-6z"/><path fill="#CC0C00" d="M242.2 30.7H194c-1.6 2.1-3 4.1-4.3 6h51.7c.5-2.1.7-4.1.8-6z"/><path fill="#FFC61E" d="M171.1 36.6c-1.5 2.2-2.7 4.2-3.8 6h53.9c.7-2 1.3-4 1.6-6h-51.7z"/><path fill="#CC0C00" d="M239.8 42.6h-53.9c-1.5 2.5-2.7 4.6-3.4 6h54.7c1.1-2 2-4 2.6-6z"/><path fill="#FFC61E" d="M163.8 48.6c-.7 1.2-1 2-1 2 1.2 1.5 2.5 2.8 3.7 4H215c1.4-2 2.5-4 3.5-6h-54.7z"/><path fill="#CC0C00" d="M233.8 54.6h-48.5c2.5 2.4 5.3 4.5 7.7 6h36.3c1.7-2.1 3.2-4.1 4.5-6zm5-41.8c-.8-1.7-1.6-3.3-2.4-4.7H217.7c-2.3 1.4-4.4 3-6.5 4.6l27.6.1z"/></svg>